<svg width="482" height="520" viewBox="0 0 482 520" fill="none" xmlns="http://www.w3.org/2000/svg">
<path d="M437.577 149.025C429.891 202.846 410.529 218.297 415.361 258.255C418.637 285.355 433.876 307.599 445.149 339.111C459.083 378.059 441.884 453.021 342.597 456.85C318.748 457.769 294.605 452.442 270.545 447.115C238.727 440.071 207.055 433.026 176.396 440.431C80.0214 463.706 38.1734 414.706 31.4474 388.722C10.485 307.742 84.8068 296.001 49.0134 234.966C-3.19724 145.938 4.79077 4.84879 172.505 51.7208C212.713 62.9581 249.192 47.9795 283.679 32.9995C324.64 15.2088 362.791 -2.5845 401.041 23.5568C448.115 55.7302 443.159 109.954 437.577 149.025Z" fill="#C6C6F7"/>
<path d="M38.8761 44.5916C38.8761 53.3169 31.8023 60.3916 23.0756 60.3916C14.3496 60.3916 7.27612 53.3169 7.27612 44.5916C7.27612 35.8649 14.3496 28.7916 23.0756 28.7916C31.8023 28.7916 38.8761 35.8649 38.8761 44.5916Z" fill="#C6C6F7"/>
<path d="M18.487 80.6265C18.487 85.2945 14.7036 89.0771 10.037 89.0771C5.36975 89.0771 1.58643 85.2945 1.58643 80.6265C1.58643 75.9598 5.36975 72.1771 10.037 72.1771C14.7036 72.1771 18.487 75.9598 18.487 80.6265Z" fill="#C6C6F7"/>
<path d="M469.911 332.172C469.911 337.62 465.495 342.036 460.048 342.036C454.6 342.036 450.184 337.62 450.184 332.172C450.184 326.724 454.6 322.308 460.048 322.308C465.495 322.308 469.911 326.724 469.911 332.172Z" fill="#C6C6F7"/>
<path d="M474.317 356.219C474.317 359.377 471.757 361.938 468.6 361.938C465.441 361.938 462.881 359.377 462.881 356.219C462.881 353.061 465.441 350.501 468.6 350.501C471.757 350.501 474.317 353.061 474.317 356.219Z" fill="#C6C6F7"/>
<path d="M339.749 371.736L115.704 371.214C111.471 371.216 108.025 367.796 108.023 363.563L108.731 42.4523C108.727 38.2177 112.147 34.7736 116.381 34.7696L340.425 35.2923C344.66 35.2896 348.104 38.7096 348.108 42.943L347.4 364.054C347.547 368.303 343.983 371.732 339.749 371.736Z" fill="#5757EA"/>
<path d="M122.649 95.9999C118.196 96.7105 114.363 92.8132 114.967 88.3492C115.408 85.4759 117.683 83.2265 120.501 82.7865C124.955 82.0758 128.788 85.9732 128.184 90.4372C127.757 93.1665 125.468 95.5599 122.649 95.9999ZM122.561 145.191C118.109 145.901 114.275 142.004 114.88 137.54C115.321 134.665 117.596 132.417 120.415 131.977C124.867 131.267 128.701 135.164 128.097 139.628C127.671 142.357 125.381 144.751 122.561 145.191ZM122.383 191.015C117.929 191.724 114.096 187.827 114.7 183.364C115.141 180.489 117.416 178.241 120.235 177.8C124.688 177.089 128.521 180.987 127.917 185.451C127.476 188.325 125.187 190.719 122.383 191.015ZM122.28 240.349C117.827 241.06 113.993 237.163 114.599 232.699C115.039 229.824 117.315 227.576 120.133 227.135C124.585 226.424 128.419 230.321 127.815 234.785C127.389 237.516 125.099 239.908 122.28 240.349ZM122.201 280.927C117.748 281.637 113.915 277.74 114.519 273.276C114.96 270.401 117.235 268.153 120.055 267.713C124.507 267.003 128.34 270.9 127.736 275.364C127.295 278.239 125.02 280.487 122.201 280.927ZM122.115 330.117C117.661 330.828 113.828 326.931 114.432 322.467C114.873 319.592 117.148 317.344 119.967 316.904C124.42 316.193 128.253 320.091 127.649 324.553C127.208 327.428 124.933 329.677 122.115 330.117ZM95.3493 53.3412L94.6733 351.388C94.6867 356.937 99.184 361.487 104.733 361.473L324.992 361.899C329.948 361.969 334.02 357.863 333.932 353.035L334.612 53.5279C334.653 48.8612 330.804 45.1079 326.136 45.0665L103.985 44.5918C99.1733 44.5358 95.26 48.5145 95.3493 53.3412Z" fill="#8D8FFF"/>
<path d="M103.528 361.404C98.4974 361.048 94.656 356.967 94.628 351.822L94.6267 336.2C94.6534 336.192 94.6801 336.183 94.7081 336.174L94.6734 351.388C94.6867 356.53 98.5467 360.812 103.528 361.404Z" fill="#A4A4F3"/>
<path d="M333.893 361.938L259.595 361.772L324.992 361.899C325.035 361.9 325.076 361.9 325.119 361.9C329.78 361.9 333.628 358.208 333.916 353.727L333.893 361.938ZM127.695 323.129C127.687 323.068 127.68 323.007 127.679 322.945C127.684 323.007 127.689 323.068 127.695 323.129ZM334.004 321.252L334.528 90.5308C334.561 90.4602 334.595 90.3922 334.629 90.3202L334.004 321.252Z" fill="#5757EA"/>
<path d="M325.119 361.9C325.076 361.9 325.035 361.9 324.992 361.899L259.595 361.772L104.3 361.428C104.281 361.428 104.263 361.428 104.244 361.428C104.003 361.428 103.764 361.42 103.528 361.404C98.5467 360.812 94.6867 356.53 94.6733 351.388L94.708 336.174C102.084 333.73 109.189 331.112 116.195 328.05C117.361 329.484 119.18 330.255 121.073 330.303C121.121 330.304 121.169 330.304 121.217 330.304C124.795 330.304 127.8 327.295 127.739 323.687C127.757 323.506 127.717 323.316 127.695 323.13C127.689 323.068 127.684 323.007 127.679 322.946C127.676 322.899 127.677 322.852 127.683 322.806C239.404 268.382 309.963 141.304 334.528 90.5311L334.004 321.252L333.916 353.727C333.628 358.208 329.78 361.9 325.119 361.9Z" fill="#7D7EF9"/>
<path d="M95.452 114.52C91.6613 113.377 88.432 111.267 86.172 108.609C83.9093 105.949 82.616 102.768 82.6147 99.4108V99.3508V99.3455V99.3401V99.2948C82.616 94.9428 84.7333 90.9415 88.28 87.9708C91.8213 85.0081 96.776 83.1308 102.285 83.1321H102.351H102.355H102.359H102.441C106.993 83.1321 111.151 84.4015 114.437 86.5148C117.725 88.6308 120.129 91.5788 121.243 94.9455C121.473 95.6441 122.228 96.0228 122.927 95.7921C123.627 95.5601 124.005 94.8068 123.775 94.1068C122.444 90.0895 119.615 86.6748 115.88 84.2721C112.143 81.8695 107.489 80.4668 102.441 80.4655H102.349H102.357H102.285C96.1707 80.4668 90.6227 82.5388 86.5693 85.9254C82.5187 89.3041 79.9467 94.0508 79.948 99.2948V99.3495V99.3388V99.4108C79.9467 103.467 81.5227 107.265 84.1413 110.339C86.7613 113.415 90.4253 115.789 94.6827 117.073C95.388 117.287 96.1307 116.887 96.344 116.183C96.556 115.477 96.1573 114.733 95.452 114.52Z" fill="#506ED8"/>
<path d="M95.2987 161.515C91.508 160.372 88.2787 158.26 86.0187 155.604C83.756 152.943 82.4627 149.763 82.4613 146.404V146.344V146.339V146.333V146.289C82.4627 141.936 84.58 137.935 88.1253 134.964C91.668 132.001 96.6227 130.125 102.132 130.127H102.197H102.199H102.205H102.287C106.84 130.125 110.997 131.395 114.283 133.509C117.571 135.624 119.975 138.572 121.089 141.939C121.32 142.637 122.075 143.017 122.773 142.785C123.473 142.555 123.852 141.8 123.62 141.101C122.289 137.084 119.46 133.668 115.725 131.267C111.989 128.863 107.335 127.46 102.287 127.46H102.196H102.204H102.132C96.0173 127.461 90.4693 129.532 86.416 132.919C82.3653 136.297 79.7933 141.044 79.7947 146.289V146.343V146.332V146.404C79.7933 150.46 81.3694 154.26 83.988 157.332C86.608 160.408 90.272 162.783 94.5293 164.068C95.2333 164.28 95.9774 163.881 96.1907 163.176C96.4027 162.471 96.004 161.727 95.2987 161.515Z" fill="#506ED8"/>
<path d="M95.216 209.245C91.424 208.103 88.1947 205.991 85.9347 203.335C83.672 200.675 82.3787 197.493 82.3774 194.135V194.075V194.071V194.064V194.02C82.3787 189.667 84.496 185.665 88.0427 182.696C91.5854 179.733 96.5387 177.856 102.049 177.857H102.113H102.117H102.121H102.204C106.756 177.856 110.915 179.125 114.2 181.24C117.488 183.356 119.892 186.304 121.005 189.669C121.237 190.369 121.991 190.748 122.691 190.516C123.389 190.285 123.768 189.531 123.537 188.832C122.207 184.815 119.377 181.399 115.643 178.997C111.905 176.593 107.252 175.191 102.204 175.191H102.112H102.121H102.049C95.9334 175.192 90.3854 177.264 86.332 180.649C82.2827 184.028 79.7107 188.775 79.7107 194.02V194.073V194.063V194.135C79.7107 198.192 81.2854 201.991 83.904 205.063C86.5254 208.139 90.1894 210.513 94.4454 211.799C95.1507 212.011 95.8947 211.612 96.1067 210.907C96.32 210.201 95.92 209.457 95.216 209.245Z" fill="#506ED8"/>
<path d="M95.0614 256.239C91.2707 255.096 88.0414 252.986 85.7814 250.328C83.5187 247.668 82.2254 244.488 82.224 241.13V241.07V241.064V241.059V241.014C82.2254 236.662 84.3427 232.659 87.8894 229.69C91.4307 226.727 96.3854 224.85 101.895 224.851H101.96H101.967H101.968H102.051C106.603 224.851 110.76 226.119 114.047 228.234C117.335 230.35 119.739 233.298 120.852 236.664C121.083 237.363 121.837 237.742 122.536 237.511C123.236 237.279 123.615 236.524 123.384 235.826C122.053 231.808 119.224 228.394 115.489 225.991C111.752 223.588 107.099 222.184 102.051 222.184H101.959H101.967H101.895C95.78 222.186 90.232 224.258 86.1787 227.643C82.128 231.023 79.556 235.768 79.5574 241.014V241.067V241.056V241.13C79.556 245.186 81.132 248.984 83.7507 252.058C86.3707 255.134 90.0347 257.507 94.292 258.792C94.996 259.006 95.74 258.606 95.9534 257.9C96.1654 257.196 95.7667 256.452 95.0614 256.239Z" fill="#506ED8"/>
<path d="M94.9535 297.105C91.1628 295.962 87.9335 293.852 85.6721 291.194C83.4108 288.534 82.1161 285.354 82.1161 281.996V281.936V281.93V281.925V281.88C82.1175 277.528 84.2348 273.526 87.7801 270.556C91.3228 267.593 96.2775 265.716 101.787 265.717H101.852H101.855H101.86H101.941C106.495 265.717 110.652 266.986 113.937 269.1C117.225 271.216 119.629 274.164 120.743 277.53C120.975 278.229 121.729 278.608 122.428 278.377C123.127 278.145 123.507 277.392 123.275 276.692C121.944 272.674 119.115 269.26 115.38 266.857C111.644 264.454 106.989 263.052 101.941 263.05H101.851H101.859H101.787C95.6721 263.052 90.1241 265.124 86.0708 268.51C82.0201 271.889 79.4481 276.634 79.4495 281.88V281.934V281.924V281.996C79.4481 286.052 81.0228 289.85 83.6428 292.924C86.2628 296 89.9268 298.374 94.1828 299.658C94.8881 299.872 95.6321 299.472 95.8441 298.768C96.0575 298.062 95.6588 297.318 94.9535 297.105Z" fill="#506ED8"/>
<path d="M94.9107 345.863C91.1201 344.72 87.8907 342.608 85.6294 339.952C83.3681 337.292 82.0734 334.111 82.0734 330.752V330.694V330.688V330.683V330.638C82.0734 326.286 84.1921 322.283 87.7374 319.314C91.2801 316.351 96.2347 314.474 101.744 314.475H101.809H101.815H101.817H101.899C106.451 314.475 110.609 315.743 113.895 317.858C117.183 319.974 119.587 322.922 120.7 326.288C120.932 326.987 121.687 327.366 122.385 327.135C123.084 326.903 123.464 326.148 123.232 325.45C121.901 321.432 119.072 318.018 115.337 315.615C111.6 313.212 106.947 311.808 101.899 311.808H101.808H101.816H101.744C95.6294 311.81 90.0814 313.882 86.0281 317.267C81.9774 320.646 79.4054 325.392 79.4067 330.638V330.691V330.68V330.752C79.4054 334.81 80.9801 338.608 83.6001 341.682C86.2201 344.758 89.8841 347.131 94.1401 348.416C94.8454 348.63 95.5894 348.23 95.8027 347.524C96.0147 346.82 95.6161 346.076 94.9107 345.863Z" fill="#506ED8"/>
<path d="M144.157 96.8416L295.081 97.1562C295.817 97.1576 296.416 96.5616 296.417 95.8256C296.419 95.0896 295.824 94.4909 295.087 94.4896L144.163 94.1749C143.427 94.1736 142.828 94.7696 142.827 95.5056C142.825 96.2416 143.421 96.8403 144.157 96.8416Z" fill="white"/>
<path d="M144.015 145.151L294.939 145.464C295.675 145.467 296.273 144.871 296.275 144.133C296.276 143.397 295.681 142.8 294.944 142.797L144.02 142.484C143.284 142.483 142.685 143.077 142.684 143.815C142.683 144.551 143.279 145.149 144.015 145.151Z" fill="white"/>
<path d="M143.909 190.252L294.833 190.565C295.569 190.567 296.168 189.971 296.169 189.235C296.171 188.499 295.576 187.9 294.839 187.899L143.915 187.585C143.179 187.583 142.58 188.179 142.579 188.915C142.577 189.652 143.173 190.249 143.909 190.252Z" fill="white"/>
<path d="M144.167 234.66L295.236 234.988C295.972 234.991 296.571 234.395 296.572 233.658C296.573 232.922 295.977 232.324 295.241 232.322L144.173 231.994C143.436 231.991 142.839 232.587 142.837 233.323C142.835 234.06 143.431 234.658 144.167 234.66Z" fill="white"/>
<path d="M143.703 278.993L294.627 279.308C295.363 279.309 295.961 278.713 295.963 277.977C295.964 277.241 295.369 276.642 294.632 276.641L143.708 276.326C142.972 276.325 142.373 276.921 142.372 277.657C142.371 278.393 142.967 278.992 143.703 278.993Z" fill="white"/>
<path d="M143.575 327.158L294.643 327.486C295.38 327.488 295.978 326.893 295.98 326.156C295.982 325.42 295.386 324.821 294.65 324.82L143.58 324.492C142.844 324.489 142.247 325.085 142.244 325.821C142.243 326.558 142.839 327.156 143.575 327.158Z" fill="white"/>
<path d="M395.628 200.59C395.124 201.388 394.779 198.38 393.809 198.758C379.303 204.502 368.516 191.226 367.58 184.488C366.629 177.761 351.604 181.72 351.571 169.924C351.527 158.114 357.015 154.684 356.464 148.629C356.464 148.629 357.251 147.134 358.429 145.382C360.895 141.738 365.088 136.988 367.593 142.249C371.307 150.052 373.992 149.436 381.753 150.866C389.528 152.284 392.721 157.98 390.063 161.722C386.813 166.28 389.761 167.077 396.999 171.717C411.319 180.898 402.452 189.793 395.628 200.59Z" fill="#7C3301"/>
<path d="M395.469 198.8C394.632 199.236 393.723 199.644 392.753 200.021C378.247 205.765 368.516 191.227 367.58 184.488C366.629 177.761 351.604 181.72 351.571 169.924C351.527 158.115 357.015 154.684 356.464 148.629C356.464 148.629 357.251 147.135 358.429 145.383C368.484 149.283 371.063 154.896 369.732 159.503C368.04 165.372 372.48 168.303 383.631 175.191C396.887 183.377 395.953 192.125 395.469 198.8Z" fill="#602700"/>
<path d="M379.791 149.487C374.197 158.603 337.092 145.112 337.092 145.112C331.073 142.888 328.125 143.61 328.585 139.91C329.033 136.208 332.945 133.154 333.201 129.264C333.301 127.754 334.207 126.16 334.296 124.008C334.425 120.607 336.8 116.794 341.612 114.256C345.048 112.444 350.741 112.084 354.921 113.896C357.979 115.222 361.561 113.811 364.88 113.504C367.521 113.26 371.247 113.754 375.833 116.535C380.699 119.472 383.049 127.271 383.503 133.131C383.953 138.856 382.553 144.97 379.791 149.487Z" fill="#7C3301"/>
<path d="M379.791 149.487C374.197 158.603 343.892 166.332 343.892 166.332C337.875 164.108 326.305 155.72 328.585 139.909C329.119 136.22 332.392 133.24 333.115 129.708C333.417 128.224 334.207 126.16 334.296 124.008C343.061 115.985 355.737 118.54 361.719 124.297C367.935 130.283 374.044 141.952 383.503 133.131C383.953 138.856 382.553 144.969 379.791 149.487Z" fill="#602700"/>
<path d="M370.328 180.609C370.328 180.609 368.909 189.479 359.401 192.404C349.9 195.339 345.856 190.871 345.719 186.733C345.708 186.441 345.697 186.149 345.696 185.851C345.596 181.245 345.847 176.089 345.464 166.983C345.403 165.557 345.591 163.965 345.981 162.343C348.185 152.952 362.924 140.372 364.905 156.555C365.961 165.184 370.328 180.609 370.328 180.609Z" fill="#FFA0A4"/>
<path d="M345.696 185.851C345.596 181.245 345.847 176.089 345.464 166.983C345.403 165.557 345.591 163.965 345.981 162.343C351.1 162.857 357.561 165.247 357.86 170.096C358.304 177.337 356.483 185.483 345.696 185.851Z" fill="#F48C93"/>
<path d="M344.768 173.657C352.057 174.127 363.656 169.398 372.959 156.506C377.385 150.371 370.96 150.094 369.296 146.879C367.633 143.665 367.511 142.638 366.628 140.043C364.861 134.853 358.568 127.253 354.191 127.251C346.937 127.251 336.009 129.195 333.055 147.789C332.74 149.769 332.757 155.865 333.703 160.263C335.5 168.623 340.012 173.349 344.768 173.657Z" fill="#FFA0A4"/>
<path d="M368.904 154.07C368.904 154.07 368.919 154.006 368.953 153.885C369.075 153.457 369.431 152.365 370.088 151.407C370.751 150.445 371.671 149.65 372.953 149.65C373.693 149.65 374.588 149.914 375.663 150.622C375.816 150.723 376.023 150.681 376.124 150.527C376.225 150.374 376.183 150.167 376.029 150.066C374.879 149.306 373.856 148.983 372.953 148.983C372.053 148.982 371.291 149.31 370.681 149.785C368.865 151.217 368.271 153.891 368.255 153.918C368.213 154.098 368.324 154.277 368.504 154.319C368.683 154.361 368.863 154.25 368.904 154.07Z" fill="#DD7A81"/>
<path d="M373.96 153.85C373.964 153.831 374.155 153.18 374.155 152.32C374.155 151.77 374.077 151.131 373.808 150.52C373.539 149.91 373.067 149.33 372.317 148.94C372.155 148.855 371.953 148.918 371.868 149.082C371.783 149.244 371.847 149.446 372.009 149.531C372.62 149.852 372.977 150.295 373.197 150.79C373.417 151.284 373.489 151.834 373.488 152.32C373.488 152.7 373.445 153.042 373.403 153.284C373.381 153.406 373.36 153.503 373.344 153.568L373.32 153.664C373.268 153.84 373.369 154.026 373.547 154.076C373.724 154.128 373.908 154.027 373.96 153.85Z" fill="#DD7A81"/>
<path d="M366.628 150.379C367.284 143.788 376.571 139.304 379.303 148.083C381.668 155.683 373.387 157.478 368.809 157.082L366.628 150.379Z" fill="#FFA0A4"/>
<path d="M340.124 144.711C340.283 145.819 339.923 146.787 339.319 146.874C338.716 146.96 338.097 146.132 337.939 145.024C337.78 143.916 338.14 142.948 338.744 142.862C339.347 142.775 339.965 143.603 340.124 144.711Z" fill="#372834"/>
<path d="M354.592 154.217C355.623 157.25 358.917 158.873 361.951 157.842C364.984 156.81 366.608 153.516 365.577 150.482C364.545 147.449 361.251 145.826 358.217 146.857C355.184 147.888 353.56 151.182 354.592 154.217Z" fill="#F48C93"/>
<path d="M342.277 147.486C342.276 147.489 341.78 148.869 341.283 150.509C340.785 152.154 340.283 154.028 340.279 155.132C340.279 155.329 340.293 155.505 340.339 155.668C340.415 155.952 340.6 156.181 340.831 156.306C341.06 156.434 341.316 156.474 341.576 156.476C342.233 156.472 342.971 156.216 343.569 155.97C344.164 155.722 344.608 155.477 344.615 155.474C344.776 155.385 344.835 155.182 344.747 155.021C344.657 154.86 344.455 154.801 344.293 154.89C344.293 154.89 344.192 154.946 344.016 155.033C343.496 155.298 342.3 155.818 341.576 155.809C341.388 155.809 341.244 155.776 341.156 155.725C341.069 155.673 341.021 155.621 340.98 155.489C340.96 155.416 340.944 155.29 340.945 155.132C340.94 154.209 341.427 152.316 341.92 150.702C342.412 149.081 342.904 147.714 342.905 147.712C342.968 147.538 342.877 147.348 342.704 147.285C342.531 147.224 342.34 147.313 342.277 147.486Z" fill="#DD7A81"/>
<path d="M332.825 149.836C332.827 149.6 332.888 149.104 332.889 148.874C335.271 148.912 336.555 149.965 337.364 152.349C338.396 155.382 336.649 158.805 333.616 159.837C333.616 159.837 332.799 156.7 332.825 149.836Z" fill="#F48C93"/>
<path d="M340.019 138.372C340.019 138.372 340.531 137.979 339.579 137.553C338.628 137.129 336.139 136.696 334.46 138.308C334.46 138.308 333.881 138.907 334.901 139.088C335.465 139.188 338.527 139.357 340.019 138.372Z" fill="#372834"/>
<path d="M348.463 137.405C348.463 137.405 347.923 137.049 348.841 136.557C349.76 136.065 352.212 135.456 354.001 136.942C354.001 136.942 354.621 137.498 353.617 137.752C353.063 137.892 350.02 138.28 348.463 137.405Z" fill="#372834"/>
<path d="M369.612 151.336L369.665 151.192C369.796 150.856 370.172 149.995 370.8 149.239C371.433 148.48 372.285 147.848 373.403 147.848C374.305 147.848 375.439 148.261 376.829 149.477C376.968 149.599 377.179 149.585 377.3 149.447C377.421 149.308 377.408 149.097 377.269 148.976C375.804 147.693 374.517 147.181 373.403 147.181C371.813 147.184 370.7 148.209 370.005 149.177C369.305 150.152 368.987 151.105 368.98 151.124C368.921 151.299 369.016 151.488 369.191 151.547C369.365 151.604 369.553 151.511 369.612 151.336Z" fill="#DD7A81"/>
<path d="M374.457 152.734C374.465 152.711 374.945 151.644 374.948 150.342C374.953 149.295 374.613 148.054 373.416 147.207C373.265 147.1 373.057 147.136 372.951 147.286C372.845 147.436 372.88 147.644 373.031 147.751C374.012 148.451 374.276 149.418 374.281 150.342C374.281 150.91 374.172 151.447 374.063 151.838C374.008 152.034 373.953 152.192 373.912 152.302L373.848 152.463C373.773 152.631 373.849 152.828 374.017 152.903C374.185 152.978 374.383 152.902 374.457 152.734Z" fill="#DD7A81"/>
<path d="M352.073 144.187C352.233 145.295 351.872 146.263 351.269 146.349C350.665 146.436 350.047 145.608 349.888 144.5C349.729 143.392 350.089 142.424 350.693 142.337C351.297 142.251 351.915 143.079 352.073 144.187Z" fill="#372834"/>
<path d="M344.768 159.219C347.617 158.661 350.952 157.284 350.952 157.284C350.952 157.284 351.431 161.172 348.939 161.784C346.227 162.451 344.877 160.025 344.768 159.219Z" fill="white"/>
<path d="M344.768 159.219L344.832 159.546C347.731 158.978 351.069 157.596 351.08 157.592L350.952 157.284L350.621 157.326C350.621 157.326 350.629 157.39 350.639 157.514C350.647 157.638 350.656 157.816 350.656 158.03C350.657 158.586 350.593 159.38 350.328 160.055C350.059 160.735 349.631 161.268 348.859 161.462C348.563 161.534 348.287 161.566 348.032 161.566C347.087 161.564 346.388 161.131 345.889 160.599C345.395 160.075 345.127 159.426 345.097 159.174L344.768 159.219L344.437 159.263C344.505 159.723 344.815 160.415 345.401 161.052C345.984 161.683 346.869 162.234 348.032 162.232C348.343 162.232 348.672 162.194 349.019 162.108C350.047 161.859 350.645 161.095 350.949 160.298C351.26 159.495 351.321 158.634 351.323 158.03C351.323 157.566 351.284 157.254 351.283 157.244L351.12 156.998L350.825 156.976C350.824 156.978 350.621 157.062 350.267 157.198C349.205 157.608 346.803 158.482 344.704 158.891C344.529 158.926 344.413 159.088 344.437 159.263L344.768 159.219Z" fill="#934735"/>
<path d="M344.319 498.617C344.297 506.856 346.692 519.217 341.337 519.207C336.935 519.198 292.724 519.107 290.773 519.103C288.823 519.099 289.372 513.496 294.74 512.229C300.109 510.962 317.415 501.829 318.724 498.564L344.319 498.617Z" fill="#450023"/>
<path d="M344.779 513.848L311.001 513.655C310.817 513.653 310.667 513.802 310.665 513.986C310.665 514.169 310.813 514.32 310.997 514.321L344.775 514.515C344.96 514.516 345.109 514.368 345.111 514.184C345.112 514 344.963 513.85 344.779 513.848Z" fill="white"/>
<path d="M400.008 498.617C400.031 506.856 397.636 519.217 402.991 519.207C407.392 519.198 451.603 519.107 453.555 519.103C455.505 519.099 454.956 513.496 449.587 512.229C444.219 510.962 426.912 501.829 425.603 498.564L400.008 498.617Z" fill="#450023"/>
<path d="M399.552 514.515L433.329 514.321C433.515 514.32 433.663 514.169 433.661 513.986C433.66 513.802 433.511 513.653 433.327 513.655L399.548 513.848C399.364 513.85 399.216 514 399.217 514.184C399.217 514.368 399.368 514.516 399.552 514.515Z" fill="white"/>
<path d="M431.165 496.874C431.407 498.152 430.675 499.398 429.357 499.989C426.804 501.132 421.909 502.69 414.185 502.69C403.507 502.69 398.487 500.241 396.555 498.919C395.925 498.489 395.496 497.884 395.328 497.201L351.369 318.232C351.369 318.232 346.816 372.424 346.599 383.785C346.409 393.352 345.311 482.442 345.985 496.453C346.04 497.593 345.247 498.619 344.02 499.014C341.144 499.938 335.675 501.433 330.383 501.429C325.452 501.426 320.675 499.857 318.291 498.933C317.313 498.553 316.655 497.743 316.545 496.814C315.264 485.849 307.548 417.444 305.728 397.532C304.048 379.132 303.652 360.94 302.721 346.724C302.552 344.185 302.431 341.805 302.371 339.601C301.923 325.013 302.863 294.178 311.904 273.38L376.716 272.161L390.529 271.882C388.765 280.222 391.704 289.892 393.251 297.181C394.707 304.044 427.343 476.657 431.165 496.874Z" fill="#6C27A8"/>
<path d="M380.928 279.954C381.413 285.574 383.871 289.558 386.204 292.125C388.537 294.694 390.744 295.857 390.768 295.869C390.931 295.954 391.132 295.892 391.217 295.729C391.304 295.566 391.241 295.365 391.077 295.28L390.989 295.23C390.067 294.708 382.471 290.106 381.592 279.897C381.576 279.714 381.415 279.578 381.231 279.594C381.048 279.61 380.912 279.772 380.928 279.954Z" fill="white"/>
<path d="M305.688 295.903C310.188 295.08 312.792 291.386 314.275 287.875C315.76 284.354 316.152 280.968 316.191 280.563C316.208 280.38 316.073 280.218 315.889 280.2C315.707 280.184 315.544 280.319 315.527 280.502C315.496 280.852 315.105 284.199 313.66 287.616C312.211 291.043 309.735 294.494 305.569 295.247C305.388 295.28 305.268 295.454 305.301 295.635C305.333 295.815 305.507 295.935 305.688 295.903Z" fill="white"/>
<path d="M347.777 280.319C347.252 284.281 347.139 288.639 347.139 291.683C347.139 294.023 347.207 295.585 347.207 295.589C347.215 295.772 347.369 295.915 347.553 295.908C347.737 295.9 347.88 295.744 347.872 295.56C347.872 295.556 347.805 294.011 347.805 291.683C347.805 288.656 347.92 284.32 348.437 280.405C348.463 280.223 348.333 280.056 348.151 280.032C347.969 280.008 347.801 280.136 347.777 280.319Z" fill="white"/>
<path d="M348.217 299.221C350.455 298.44 352.091 298.105 353.236 297.776C353.808 297.608 354.264 297.447 354.623 297.199C354.981 296.955 355.229 296.587 355.291 296.139C355.405 295.364 355.677 291.456 355.925 287.699C356.172 283.949 356.392 280.383 356.392 280.383C356.404 280.199 356.264 280.04 356.08 280.029C355.896 280.017 355.737 280.157 355.727 280.341C355.727 280.349 355.507 283.907 355.26 287.655C355.013 291.395 354.736 295.351 354.631 296.04C354.583 296.324 354.483 296.476 354.241 296.652C353.877 296.912 353.16 297.12 352.117 297.385C351.073 297.653 349.704 297.996 347.997 298.592C347.824 298.653 347.732 298.843 347.793 299.017C347.853 299.191 348.044 299.283 348.217 299.221Z" fill="white"/>
<path d="M351.369 318.232L345.265 308.076L346.196 415.047L351.369 318.232Z" fill="#4D1884"/>
<path d="M295.325 188.786L280.567 210.26C275.465 217.108 270.748 221.997 267.676 226.038C263.412 231.636 262.288 235.612 267.653 240.924L267.661 240.932L267.677 240.949L267.941 241.12C268.255 241.325 268.568 241.529 268.881 241.718C269.099 241.853 269.308 241.978 269.517 242.104C269.807 242.268 270.097 242.43 270.38 242.584C270.767 242.785 271.147 242.977 271.528 243.152C272.207 243.482 272.888 243.762 273.548 244.001C273.808 244.096 274.06 244.182 274.304 244.261C275.503 244.657 276.656 244.918 277.775 245.072C277.996 245.106 278.217 245.142 278.449 245.153C280.384 245.369 282.184 245.265 283.804 244.945C284.305 244.853 284.775 244.742 285.236 244.608C286.552 244.248 287.717 243.757 288.736 243.226C288.931 243.129 289.109 243.029 289.288 242.93C289.5 242.816 289.704 242.693 289.892 242.57C290.072 242.454 290.233 242.354 290.404 242.246C291.455 241.544 292.259 240.829 292.783 240.258C295.681 237.086 324.779 203.478 324.779 203.478L327.02 198.818L330.023 192.582L295.325 188.786Z" fill="#FFC96C"/>
<path d="M292.783 240.259C295.681 237.087 324.779 203.479 324.779 203.479L327.02 198.819C318.255 201.116 321.285 187.284 318.631 197.517L292.783 240.259Z" fill="#F2B255"/>
<path d="M321.832 188.08C321.989 190.045 318.631 195.423 318.631 197.517C318.637 217.663 306.377 269.353 307.259 273.728C308.512 280.019 326.093 273.561 336.748 280.611C347.121 287.48 359.621 279.785 363.385 281.351C371.011 284.54 384.337 282.692 385.588 279.927C386.832 277.168 383.932 259.272 383.932 259.272L386.507 259.417L413.436 266.949C412.056 251.948 410.503 227.499 404.94 213.013C401.904 205.121 394.488 193.413 388.435 187.144C386.335 184.969 374.665 180.26 371.811 181.257C367.491 182.765 368.871 188.787 362.313 188.787C350.593 188.787 321.832 188.08 321.832 188.08Z" fill="#FFC96C"/>
<path d="M413.436 260.42C419.453 288.445 370.363 305.123 369.916 231.664C386.471 208.825 408.516 230.288 413.436 260.42Z" fill="#F2B255"/>
<path d="M319.285 188.813C319.327 189.312 319.345 189.877 319.345 190.496C319.347 196.454 317.557 207.272 317.039 212.694C317.021 212.877 317.155 213.04 317.339 213.057C317.521 213.074 317.684 212.941 317.701 212.757C318.215 207.372 320.011 196.558 320.012 190.496C320.012 189.862 319.992 189.281 319.949 188.758C319.933 188.576 319.773 188.438 319.589 188.454C319.405 188.469 319.269 188.63 319.285 188.813Z" fill="#C17E25"/>
<path d="M235.291 178.676C235.291 178.676 239.515 189.608 244.903 202.191C249.341 212.587 254.593 224.108 258.907 231.507C259.239 232.076 259.573 232.619 259.924 233.143C260.068 233.387 260.232 233.622 260.391 233.846C260.516 234.047 260.651 234.244 260.796 234.435C261.032 234.779 261.285 235.103 261.523 235.422C261.785 235.767 262.055 236.096 262.319 236.416L262.499 236.631C262.729 236.902 262.965 237.156 263.201 237.411L263.324 237.55C263.605 237.848 263.897 238.143 264.179 238.416L264.279 238.5C277.255 247.364 285.932 244.08 288.349 235.175C290.065 228.908 288.659 219.86 283.48 210.29L256.931 171.66L235.291 178.676Z" fill="#FFC96C"/>
<path d="M283.195 210.473C284.133 211.827 285.301 213.865 286.231 215.559C287.161 217.253 287.852 218.603 287.853 218.605C287.937 218.769 288.137 218.833 288.301 218.749C288.465 218.665 288.531 218.465 288.447 218.301C288.443 218.295 285.669 212.877 283.743 210.093C283.639 209.943 283.431 209.904 283.279 210.009C283.128 210.115 283.091 210.321 283.195 210.473Z" fill="#C17E25"/>
<path d="M193.245 138.121L203.579 148.185L219.229 163.403C219.229 163.403 354.536 215.259 419.471 240.044C437.347 246.864 449.881 251.635 452.811 252.708C462.551 256.287 473.192 232.575 462.025 227.539C461.151 227.144 448.779 222.263 430.137 214.927C366.119 189.74 228.116 135.679 228.116 135.679L207.677 137.112L193.245 138.121Z" fill="#B256DF"/>
<path d="M407.476 215.621L236.248 147.73C236.077 147.662 235.883 147.745 235.816 147.917C235.748 148.088 235.832 148.281 236.003 148.349L407.231 216.241C407.401 216.309 407.596 216.225 407.664 216.053C407.732 215.882 407.648 215.689 407.476 215.621Z" fill="#DDDDDD"/>
<path d="M401.911 224.333L232.181 157.036C232.009 156.968 231.816 157.052 231.748 157.223C231.68 157.395 231.764 157.588 231.936 157.656L401.665 224.952C401.837 225.02 402.031 224.936 402.099 224.765C402.167 224.595 402.083 224.4 401.911 224.333Z" fill="#DDDDDD"/>
<path d="M207.677 137.112C207.703 141.114 206.148 145.04 203.579 148.185L219.229 163.402C219.229 163.402 225.165 160.105 221.125 153.701C225.791 153.364 228.987 148.366 223.44 144.793C223.44 144.793 230.445 142.949 228.116 135.678L207.677 137.112Z" fill="#D999FF"/>
<path d="M193.245 138.122L203.579 148.186C206.148 145.04 207.703 141.115 207.677 137.112L193.245 138.122Z" fill="#4D1884"/>
<path d="M430.137 214.927L429.831 214.796C426.291 223.162 422.397 232.336 419.164 239.914V240.174L419.352 240.355C437.229 247.176 449.761 251.946 452.696 253.022C453.411 253.284 454.133 253.408 454.851 253.408C458.087 253.398 461.135 250.944 463.393 247.588C465.652 244.222 467.132 239.914 467.135 236.026C467.143 232.259 465.707 228.83 462.163 227.235C461.7 227.027 458.404 225.715 452.867 223.526C447.333 221.339 439.58 218.284 430.26 214.616C430.091 214.551 429.901 214.63 429.831 214.796L430.137 214.927L430.015 215.238C439.336 218.906 447.089 221.959 452.621 224.146C458.148 226.331 461.475 227.656 461.888 227.843C465.139 229.314 466.459 232.404 466.468 236.026C466.471 239.744 465.029 243.959 462.84 247.216C460.652 250.483 457.724 252.752 454.851 252.742C454.211 252.742 453.568 252.631 452.925 252.396C450.003 251.324 437.464 246.552 419.589 239.732L419.471 240.044L419.777 240.175C423.011 232.596 426.905 223.422 430.444 215.056L430.137 214.927Z" fill="#DDDDDD"/>
<path d="M254.525 180.449C256.375 167.255 255.06 165.355 253.605 165.144C252.151 164.935 250.223 171.129 249.857 172.986C249.857 172.986 250.768 162.236 248.124 160.939C245.479 159.64 244.365 164.205 244.365 164.205C244.365 164.205 241.884 160.076 239.137 165.449C239.137 165.449 237.809 163.328 236.391 165.941C234.971 168.555 234.512 179.428 237.58 181.377C240.649 183.327 253.631 186.833 254.525 180.449Z" fill="#FFA0A4"/>
<path d="M255.527 174.837C255.693 173.014 255.767 171.527 255.767 170.311C255.765 168.195 255.549 166.903 255.177 166.073C254.816 165.239 254.212 164.882 253.652 164.814L253.532 164.806C253.231 164.807 252.976 164.955 252.753 165.151C251.988 165.845 251.311 167.349 250.721 168.919C250.141 170.487 249.693 172.093 249.531 172.921L249.857 172.986L250.189 173.014C250.189 173.007 250.341 171.213 250.341 168.991C250.341 167.379 250.263 165.543 249.981 163.993C249.84 163.217 249.649 162.511 249.381 161.93C249.113 161.353 248.765 160.885 248.271 160.638C247.903 160.458 247.545 160.373 247.207 160.373C246.608 160.371 246.097 160.641 245.7 161.006C244.512 162.109 244.056 164.102 244.041 164.126L244.365 164.205L244.651 164.034C244.641 164.018 244.401 163.618 243.975 163.207C243.549 162.799 242.923 162.359 242.125 162.357C241.608 162.354 241.047 162.554 240.497 163.021C239.947 163.486 239.395 164.213 238.84 165.297L239.137 165.449L239.419 165.273C239.409 165.257 239.271 165.034 239.02 164.799C238.771 164.569 238.397 164.306 237.904 164.303C237.604 164.302 237.279 164.413 236.976 164.653C236.673 164.894 236.383 165.257 236.097 165.782C236.009 165.943 236.069 166.146 236.231 166.234C236.393 166.322 236.596 166.262 236.683 166.099C236.939 165.629 237.183 165.339 237.389 165.177C237.599 165.014 237.76 164.971 237.904 164.97C238.136 164.966 238.379 165.11 238.564 165.286L238.783 165.526L238.839 165.603L238.855 165.626C238.917 165.727 239.031 165.787 239.151 165.782C239.271 165.777 239.379 165.707 239.433 165.601C239.961 164.567 240.472 163.914 240.928 163.53C241.387 163.145 241.777 163.025 242.125 163.023C242.656 163.019 243.149 163.337 243.512 163.687C243.692 163.861 243.837 164.037 243.935 164.167L244.045 164.325L244.079 164.377C244.148 164.493 244.281 164.555 244.415 164.535C244.548 164.514 244.657 164.415 244.688 164.285L244.727 164.146C244.816 163.827 245.077 163.011 245.511 162.302C245.725 161.947 245.984 161.622 246.269 161.395C246.557 161.169 246.86 161.039 247.207 161.039C247.433 161.039 247.685 161.094 247.976 161.237C248.265 161.375 248.544 161.706 248.776 162.21C249.484 163.722 249.68 166.611 249.675 168.991C249.675 170.087 249.637 171.079 249.6 171.798C249.563 172.517 249.525 172.957 249.525 172.957C249.511 173.134 249.636 173.291 249.811 173.315C249.987 173.341 250.149 173.223 250.184 173.05C250.356 172.169 250.913 170.21 251.596 168.501C251.939 167.646 252.313 166.851 252.679 166.289C252.86 166.009 253.039 165.787 253.195 165.651C253.352 165.51 253.472 165.47 253.532 165.473L253.557 165.474C253.941 165.542 254.252 165.677 254.569 166.347C254.876 167.021 255.103 168.243 255.1 170.311C255.1 171.501 255.028 172.969 254.863 174.777C254.847 174.959 254.981 175.122 255.164 175.138C255.348 175.155 255.511 175.021 255.527 174.837Z" fill="#EF8A66"/>
<path d="M244.032 164.201L243.873 175.057C243.871 175.241 244.019 175.393 244.203 175.395C244.387 175.398 244.537 175.251 244.54 175.066L244.699 164.21C244.701 164.026 244.553 163.874 244.369 163.871C244.185 163.869 244.035 164.017 244.032 164.201Z" fill="#EF8A66"/>
<path d="M239.489 175.368L239.471 165.449C239.469 165.265 239.32 165.116 239.136 165.116C238.952 165.116 238.803 165.266 238.804 165.45L238.823 175.369C238.823 175.553 238.973 175.701 239.157 175.701C239.341 175.701 239.489 175.552 239.489 175.368Z" fill="#EF8A66"/>
<path d="M249.527 172.945L249.103 176.331C249.08 176.514 249.209 176.681 249.392 176.703C249.575 176.726 249.741 176.597 249.764 176.414L250.188 173.027C250.211 172.845 250.081 172.678 249.899 172.655C249.716 172.631 249.549 172.762 249.527 172.945Z" fill="#EF8A66"/>
<path d="M346.468 232.973C346.449 232.548 348.625 226.313 354.337 220.953L360.487 230.573C360.487 230.573 351.905 237.343 346.468 232.973Z" fill="#DB9B45"/>
<path d="M370.163 215.391C367.656 213.355 363.965 210.25 363.625 209.636C363.284 209.024 361.393 203.648 360.403 201.515C359.412 199.38 355.409 190.848 354.519 190.862C353.627 190.874 352.169 192.698 352.483 194.902C352.483 194.902 347.08 187.198 344.132 184.838C341.736 182.92 340.719 185.675 341.759 187.874C339.747 184.914 335.681 184.084 337.775 189.111C335.501 187.084 332.965 188.218 335.153 193.575C333.708 190.995 331.183 191.712 331.921 195.023C333.128 200.435 338.276 207.258 339.912 209.402C341.548 211.547 353.272 223.03 356.699 229.262C356.699 229.262 366.268 223.962 370.163 215.391Z" fill="#FFA0A4"/>
<path d="M360.705 201.373C360.209 200.305 358.961 197.64 357.723 195.234C357.103 194.032 356.485 192.896 355.961 192.049C355.699 191.626 355.46 191.276 355.245 191.018C355.139 190.889 355.037 190.782 354.931 190.696C354.823 190.614 354.711 190.533 354.52 190.528H354.508L354.519 190.861L354.513 190.528C353.909 190.554 353.363 191.01 352.9 191.672C352.445 192.34 352.107 193.254 352.105 194.288C352.105 194.504 352.12 194.724 352.152 194.948L352.483 194.901L352.755 194.709C352.753 194.706 351.401 192.777 349.676 190.55C347.948 188.32 345.865 185.801 344.34 184.577C343.737 184.096 343.184 183.86 342.672 183.858C342.129 183.853 341.676 184.15 341.413 184.572C341.144 184.993 341.02 185.53 341.019 186.109C341.02 186.724 341.161 187.388 341.457 188.016L341.759 187.873L342.035 187.685C341.519 186.929 340.88 186.306 340.228 185.866C339.573 185.429 338.911 185.165 338.305 185.161C337.913 185.16 337.527 185.286 337.257 185.582C336.987 185.877 336.857 186.297 336.857 186.806C336.859 187.438 337.048 188.23 337.467 189.238L337.775 189.11L337.996 188.861C337.26 188.209 336.484 187.838 335.763 187.834C335.263 187.83 334.783 188.036 334.464 188.444C334.144 188.849 333.983 189.418 333.983 190.137C333.983 191.053 334.243 192.226 334.844 193.701L335.153 193.574L335.444 193.412C334.815 192.293 333.967 191.689 333.135 191.682C332.661 191.678 332.212 191.902 331.915 192.298C331.616 192.694 331.455 193.244 331.455 193.918C331.455 194.274 331.5 194.666 331.595 195.096C331.636 195.274 331.813 195.388 331.993 195.348C332.173 195.308 332.287 195.13 332.247 194.95C332.16 194.562 332.121 194.218 332.121 193.918C332.121 193.348 332.26 192.945 332.445 192.701C332.635 192.458 332.859 192.352 333.135 192.349C333.612 192.341 334.308 192.745 334.863 193.737C334.948 193.89 335.139 193.952 335.297 193.874C335.456 193.798 335.528 193.612 335.461 193.449C334.881 192.029 334.648 190.925 334.649 190.137C334.648 189.516 334.792 189.101 334.987 188.857C335.183 188.614 335.427 188.505 335.763 188.501C336.243 188.498 336.901 188.776 337.552 189.358C337.668 189.462 337.84 189.472 337.968 189.381C338.095 189.292 338.141 189.126 338.081 188.982C337.683 188.025 337.523 187.301 337.524 186.806C337.525 186.402 337.625 186.166 337.748 186.034C337.871 185.902 338.041 185.83 338.305 185.828C338.705 185.825 339.279 186.029 339.855 186.42C340.433 186.809 341.017 187.376 341.483 188.06C341.581 188.204 341.773 188.249 341.924 188.162C342.075 188.076 342.135 187.888 342.06 187.73C341.807 187.196 341.685 186.62 341.685 186.109C341.685 185.628 341.796 185.205 341.973 184.933C342.156 184.66 342.364 184.529 342.672 184.525C342.967 184.522 343.393 184.672 343.924 185.097C345.347 186.233 347.44 188.746 349.149 190.958C350.007 192.065 350.772 193.1 351.323 193.857C351.873 194.613 352.208 195.092 352.209 195.092C352.297 195.218 352.461 195.268 352.605 195.21C352.748 195.154 352.835 195.006 352.812 194.854C352.785 194.661 352.772 194.473 352.772 194.288C352.772 193.402 353.068 192.609 353.451 192.046C353.827 191.477 354.319 191.178 354.523 191.194L354.528 191.193L354.52 190.93V191.194L354.528 191.193L354.52 190.93V191.194V191.08L354.469 191.186L354.52 191.194V191.08L354.469 191.186C354.492 191.188 354.671 191.345 354.857 191.602C355.545 192.509 356.661 194.589 357.691 196.644C358.723 198.702 359.681 200.752 360.1 201.654C360.177 201.821 360.376 201.893 360.543 201.816C360.711 201.738 360.783 201.54 360.705 201.373Z" fill="#EF8A66"/>
<path d="M352.2 195.078L354.833 199.314C354.931 199.47 355.136 199.518 355.292 199.42C355.449 199.323 355.497 199.118 355.4 198.96L352.765 194.726C352.668 194.57 352.463 194.522 352.307 194.619C352.151 194.716 352.103 194.922 352.2 195.078Z" fill="#EF8A66"/>
<path d="M341.48 188.056L347.012 196.517C347.113 196.67 347.319 196.713 347.473 196.613C347.628 196.512 347.671 196.305 347.569 196.152L342.037 187.69C341.937 187.537 341.731 187.493 341.576 187.594C341.423 187.694 341.379 187.901 341.48 188.056Z" fill="#EF8A66"/>
<path d="M337.487 189.28L343.188 198.929C343.281 199.088 343.485 199.142 343.644 199.047C343.803 198.954 343.855 198.749 343.761 198.591L338.061 188.941C337.968 188.783 337.763 188.729 337.604 188.823C337.445 188.917 337.393 189.122 337.487 189.28Z" fill="#EF8A66"/>
<path d="M334.86 193.733L339.139 201.619C339.227 201.781 339.428 201.841 339.591 201.753C339.752 201.665 339.812 201.463 339.724 201.301L335.445 193.416C335.359 193.253 335.156 193.195 334.993 193.281C334.832 193.369 334.772 193.572 334.86 193.733Z" fill="#EF8A66"/>
<path d="M367.977 210.277C380.703 220.123 402.667 239.455 412.763 264.196C416.669 273.769 403.072 295.355 384.775 281.448C366.477 267.541 346.468 232.973 346.468 232.973C346.468 232.973 355.191 236.051 367.977 210.277Z" fill="#FFC96C"/>
<path d="M374.468 271.342C367.148 263.361 360.216 253.724 355.119 246.084C352.569 242.264 350.479 238.942 349.025 236.578C348.299 235.396 347.731 234.452 347.345 233.804C346.96 233.156 346.757 232.806 346.757 232.805L346.468 232.973L346.357 233.286C346.388 233.298 346.751 233.42 347.408 233.42C348.784 233.422 351.433 232.877 355.008 229.734C358.585 226.59 363.103 220.853 368.276 210.425L367.977 210.277L367.773 210.541C374.995 216.128 385.197 224.776 394.503 235.728C394.621 235.869 394.832 235.885 394.972 235.766C395.112 235.648 395.129 235.437 395.011 235.297C385.661 224.293 375.425 215.618 368.181 210.013L367.903 209.952L367.679 210.129C362.531 220.506 358.052 226.173 354.568 229.233C351.081 232.293 348.607 232.752 347.408 232.753C347.121 232.753 346.907 232.726 346.767 232.701L346.615 232.668L346.583 232.658H346.579C346.447 232.612 346.301 232.652 346.212 232.76C346.123 232.868 346.109 233.018 346.18 233.14C346.187 233.149 359.264 255.749 373.976 271.793C374.101 271.929 374.312 271.938 374.447 271.813C374.583 271.689 374.592 271.478 374.468 271.342Z" fill="#C17E25"/>
<path d="M481.44 518.873H13.7423C13.5585 518.873 13.4089 519.022 13.4089 519.207C13.4089 519.391 13.5585 519.54 13.7423 519.54H481.44C481.624 519.54 481.773 519.391 481.773 519.207C481.773 519.022 481.624 518.873 481.44 518.873Z" fill="#2D2B82"/>
<path d="M462.543 92.8677H424.8C421.176 92.8677 418.237 95.8064 418.237 99.4304V118.928L411.311 130.589C410.719 131.585 411.64 132.794 412.757 132.49L423.957 129.441C424.233 129.477 424.513 129.501 424.8 129.501H462.543C466.167 129.501 469.104 126.564 469.104 122.94V99.4304C469.104 95.8064 466.167 92.8677 462.543 92.8677Z" fill="#5757EA"/>
<path d="M436.032 112.704H435.699C435.696 114.091 434.573 115.213 433.187 115.216C431.799 115.213 430.677 114.091 430.675 112.704C430.677 111.316 431.799 110.195 433.187 110.192C434.573 110.195 435.696 111.316 435.699 112.704H436.032H436.365C436.365 110.948 434.943 109.525 433.187 109.525C431.431 109.525 430.008 110.948 430.008 112.704C430.008 114.459 431.431 115.881 433.187 115.883C434.943 115.881 436.365 114.459 436.365 112.704H436.032Z" fill="#E8E8E8"/>
<path d="M447.139 112.704H446.805C446.804 114.091 445.681 115.213 444.293 115.216C442.907 115.213 441.784 114.091 441.781 112.704C441.784 111.316 442.907 110.195 444.293 110.192C445.681 110.195 446.804 111.316 446.805 112.704H447.139H447.472C447.472 110.948 446.049 109.525 444.293 109.525C442.539 109.525 441.116 110.948 441.115 112.704C441.116 114.459 442.539 115.881 444.293 115.883C446.049 115.881 447.472 114.459 447.472 112.704H447.139Z" fill="#E8E8E8"/>
<path d="M458.14 112.704H457.807C457.804 114.091 456.681 115.213 455.295 115.216C453.907 115.213 452.785 114.091 452.783 112.704C452.785 111.316 453.907 110.195 455.295 110.192C456.681 110.195 457.804 111.316 457.807 112.704H458.14H458.473C458.473 110.948 457.051 109.525 455.295 109.525C453.539 109.525 452.116 110.948 452.116 112.704C452.116 114.459 453.539 115.881 455.295 115.883C457.051 115.881 458.473 114.459 458.473 112.704H458.14Z" fill="#E8E8E8"/>
<path d="M89.4415 463.443C89.4415 463.443 92.4948 451.932 83.4682 449.331C74.4415 446.728 62.1282 446.744 58.7162 454.673C55.3042 462.601 65.7002 462.108 72.6842 461.586C79.6682 461.065 82.8802 472.848 89.4415 463.443Z" fill="#8D8FFF"/>
<path d="M92.0095 432.155C92.0095 432.155 96.2588 428.256 95.8748 414.97C95.4895 401.683 89.0188 379.567 78.4122 384.506C67.8055 389.444 73.2455 415.798 78.8868 425.632C84.5282 435.467 92.0095 432.155 92.0095 432.155Z" fill="#8D8FFF"/>
<path d="M82.6106 401.884C82.6106 401.885 82.8319 402.602 83.2213 403.932C85.9453 413.241 96.8453 452.494 96.8426 483.792C96.8426 485.955 96.7906 488.082 96.6799 490.158L97.0133 490.176L97.3453 490.164C97.3439 490.143 97.0173 481.454 93.6093 472.458C91.9053 467.961 89.4279 463.383 85.8173 459.782C82.2093 456.181 77.4559 453.562 71.2586 453.013C71.0759 452.997 70.9146 453.133 70.8973 453.316C70.8813 453.5 71.0173 453.661 71.1999 453.677C77.2386 454.217 81.8266 456.746 85.3466 460.254C90.6253 465.516 93.4719 473.001 94.9839 479.176C95.7399 482.262 96.1639 485.019 96.3999 487.002C96.5173 487.994 96.5866 488.793 96.6279 489.342C96.6679 489.892 96.6799 490.188 96.6799 490.189L97.3453 490.194C97.4573 488.105 97.5093 485.966 97.5093 483.792C97.5053 447.862 83.2493 401.702 83.2466 401.686C83.1933 401.512 83.0066 401.413 82.8306 401.466C82.6546 401.521 82.5559 401.708 82.6106 401.884Z" fill="#4747A8"/>
<path d="M118.327 457.782C118.327 457.782 110.757 448.589 117.88 442.463C125.003 436.338 136.204 431.225 142.608 437.013C149.012 442.799 139.356 446.681 132.788 449.115C126.223 451.55 128.209 463.599 118.327 457.782Z" fill="#8D8FFF"/>
<path d="M135.292 439.989C135.264 439.999 128.696 442.031 122.115 447.912C115.533 453.789 108.947 463.544 108.951 478.904C108.951 480.087 108.989 481.302 109.071 482.551C109.081 482.735 109.24 482.874 109.424 482.862C109.608 482.85 109.747 482.691 109.735 482.508C109.656 481.272 109.617 480.072 109.617 478.904C109.62 463.741 116.087 454.199 122.559 448.409C125.796 445.516 129.035 443.568 131.461 442.344C132.675 441.732 133.685 441.301 134.391 441.025C134.743 440.887 135.02 440.787 135.207 440.721C135.395 440.656 135.488 440.627 135.489 440.627C135.664 440.572 135.763 440.385 135.709 440.209C135.655 440.033 135.468 439.935 135.292 439.989Z" fill="#4747A8"/>
<path d="M120.668 480.899H80.9973C79.5786 480.899 78.428 482.05 78.428 483.469V487.262C78.428 488.682 79.5786 489.831 80.9973 489.831H120.668C122.087 489.831 123.237 488.682 123.237 487.262V483.469C123.237 482.05 122.087 480.899 120.668 480.899Z" fill="#1818A0"/>
<path d="M85.5001 519.207L116.821 519.144C118.244 519.14 119.393 517.983 119.385 516.562L119.251 489.388H82.8574L82.9241 516.644C82.9281 518.063 84.0814 519.21 85.5001 519.207Z" fill="#1818A0"/>
<path d="M119.177 489.572H86.4C86.216 489.572 86.0667 489.721 86.0667 489.905C86.0667 490.089 86.216 490.238 86.4 490.238H119.177C119.361 490.238 119.511 490.089 119.511 489.905C119.511 489.721 119.361 489.572 119.177 489.572Z" fill="white"/>
<path d="M12.3887 161.588C15.3616 159.965 21.3865 158.797 20.9141 150.741C20.8517 149.677 22.5767 149.551 23.0887 150.485C24.7761 153.571 26.4152 159.395 33.6152 160.708C34.5152 160.872 34.6955 162.485 33.8199 162.749C27.4381 164.679 26.6028 168.473 24.9913 173.112C24.6491 174.096 23.3261 174.248 22.8283 173.332C21.0475 170.057 20.9605 165.445 12.6037 163.752C11.5761 163.544 11.4684 162.091 12.3887 161.588Z" fill="white"/>
<path d="M211.54 7.16664C213.403 6.22664 217.177 5.54932 216.881 0.882653C216.841 0.266653 217.923 0.193273 218.243 0.734606C219.3 2.52127 220.328 5.89596 224.839 6.65596C225.403 6.75196 225.515 7.68531 224.967 7.83864C220.968 8.95731 220.445 11.1546 219.435 13.8413C219.221 14.412 218.392 14.5 218.08 13.9693C216.964 12.072 216.911 9.40129 211.675 8.41996C211.031 8.29996 210.963 7.45731 211.54 7.16664Z" fill="white"/>
<path d="M205.847 404.878C208.293 403.544 213.252 402.582 212.863 395.952C212.812 395.076 214.232 394.972 214.653 395.741C216.041 398.28 217.391 403.073 223.316 404.154C224.057 404.289 224.205 405.617 223.485 405.836C218.232 407.422 217.545 410.546 216.219 414.364C215.937 415.173 214.848 415.298 214.439 414.545C212.973 411.849 212.901 408.054 206.024 406.66C205.177 406.489 205.089 405.293 205.847 404.878Z" fill="white"/>
<path d="M478.533 186.987C478.533 190.227 475.907 192.854 472.668 192.854C469.428 192.854 466.801 190.227 466.801 186.987C466.801 183.747 469.428 181.12 472.668 181.12C475.907 181.12 478.533 183.747 478.533 186.987Z" fill="white"/>
<path d="M14.6115 326.153C14.6115 330.205 11.3271 333.489 7.27605 333.489C3.22458 333.489 -0.0598145 330.205 -0.0598145 326.153C-0.0598145 322.103 3.22458 318.817 7.27605 318.817C11.3271 318.817 14.6115 322.103 14.6115 326.153Z" fill="white"/>
</svg>
